<mxfile host="app.diagrams.net" modified="2024-04-30T17:47:44.526Z" agent="Mozilla/5.0 (Windows NT 10.0; WOW64) AppleWebKit/537.36 (KHTML, like Gecko) Chrome/102.0.0.0 Safari/537.36" etag="iKzIc-PSSd0fzWTQD9Xc" version="24.3.1" type="github">
  <diagram name="第 1 页" id="hJNwZLfBhfu_36DX5GR1">
    <mxGraphModel dx="1434" dy="756" grid="0" gridSize="10" guides="1" tooltips="1" connect="1" arrows="1" fold="1" page="1" pageScale="1" pageWidth="827" pageHeight="1169" math="0" shadow="0">
      <root>
        <mxCell id="0" />
        <mxCell id="1" parent="0" />
        <mxCell id="ZtoyrRgASsB_ZvQdjm4B-28" value="" style="edgeStyle=orthogonalEdgeStyle;rounded=0;orthogonalLoop=1;jettySize=auto;html=1;" edge="1" parent="1" source="ZtoyrRgASsB_ZvQdjm4B-1" target="ZtoyrRgASsB_ZvQdjm4B-2">
          <mxGeometry relative="1" as="geometry" />
        </mxCell>
        <mxCell id="ZtoyrRgASsB_ZvQdjm4B-1" value="登录模块" style="rounded=0;whiteSpace=wrap;html=1;" vertex="1" parent="1">
          <mxGeometry x="320" y="220" width="110" height="40" as="geometry" />
        </mxCell>
        <mxCell id="ZtoyrRgASsB_ZvQdjm4B-29" style="edgeStyle=orthogonalEdgeStyle;rounded=0;orthogonalLoop=1;jettySize=auto;html=1;exitX=0;exitY=1;exitDx=0;exitDy=0;entryX=0.5;entryY=0;entryDx=0;entryDy=0;" edge="1" parent="1" source="ZtoyrRgASsB_ZvQdjm4B-2" target="ZtoyrRgASsB_ZvQdjm4B-4">
          <mxGeometry relative="1" as="geometry">
            <Array as="points">
              <mxPoint x="320" y="370" />
              <mxPoint x="125" y="370" />
            </Array>
          </mxGeometry>
        </mxCell>
        <mxCell id="ZtoyrRgASsB_ZvQdjm4B-30" style="edgeStyle=orthogonalEdgeStyle;rounded=0;orthogonalLoop=1;jettySize=auto;html=1;exitX=0.25;exitY=1;exitDx=0;exitDy=0;entryX=0.5;entryY=0;entryDx=0;entryDy=0;" edge="1" parent="1" source="ZtoyrRgASsB_ZvQdjm4B-2" target="ZtoyrRgASsB_ZvQdjm4B-8">
          <mxGeometry relative="1" as="geometry">
            <Array as="points">
              <mxPoint x="348" y="380" />
              <mxPoint x="315" y="380" />
            </Array>
          </mxGeometry>
        </mxCell>
        <mxCell id="ZtoyrRgASsB_ZvQdjm4B-32" style="edgeStyle=orthogonalEdgeStyle;rounded=0;orthogonalLoop=1;jettySize=auto;html=1;exitX=0.75;exitY=1;exitDx=0;exitDy=0;entryX=0.5;entryY=0;entryDx=0;entryDy=0;" edge="1" parent="1" source="ZtoyrRgASsB_ZvQdjm4B-2" target="ZtoyrRgASsB_ZvQdjm4B-11">
          <mxGeometry relative="1" as="geometry" />
        </mxCell>
        <mxCell id="ZtoyrRgASsB_ZvQdjm4B-33" style="edgeStyle=orthogonalEdgeStyle;rounded=0;orthogonalLoop=1;jettySize=auto;html=1;exitX=1;exitY=1;exitDx=0;exitDy=0;entryX=0.5;entryY=0;entryDx=0;entryDy=0;" edge="1" parent="1" source="ZtoyrRgASsB_ZvQdjm4B-2" target="ZtoyrRgASsB_ZvQdjm4B-15">
          <mxGeometry relative="1" as="geometry">
            <Array as="points">
              <mxPoint x="430" y="370" />
              <mxPoint x="605" y="370" />
            </Array>
          </mxGeometry>
        </mxCell>
        <mxCell id="ZtoyrRgASsB_ZvQdjm4B-2" value="主页面" style="rounded=0;whiteSpace=wrap;html=1;" vertex="1" parent="1">
          <mxGeometry x="320" y="300" width="110" height="40" as="geometry" />
        </mxCell>
        <mxCell id="ZtoyrRgASsB_ZvQdjm4B-24" style="edgeStyle=orthogonalEdgeStyle;rounded=0;orthogonalLoop=1;jettySize=auto;html=1;exitX=1;exitY=1;exitDx=0;exitDy=0;" edge="1" parent="1" source="ZtoyrRgASsB_ZvQdjm4B-4" target="ZtoyrRgASsB_ZvQdjm4B-7">
          <mxGeometry relative="1" as="geometry">
            <Array as="points">
              <mxPoint x="195" y="460" />
            </Array>
          </mxGeometry>
        </mxCell>
        <mxCell id="ZtoyrRgASsB_ZvQdjm4B-25" style="edgeStyle=orthogonalEdgeStyle;rounded=0;orthogonalLoop=1;jettySize=auto;html=1;exitX=0.75;exitY=1;exitDx=0;exitDy=0;entryX=0.5;entryY=0;entryDx=0;entryDy=0;" edge="1" parent="1" source="ZtoyrRgASsB_ZvQdjm4B-4" target="ZtoyrRgASsB_ZvQdjm4B-6">
          <mxGeometry relative="1" as="geometry" />
        </mxCell>
        <mxCell id="ZtoyrRgASsB_ZvQdjm4B-26" style="edgeStyle=orthogonalEdgeStyle;rounded=0;orthogonalLoop=1;jettySize=auto;html=1;exitX=0.25;exitY=1;exitDx=0;exitDy=0;entryX=0.5;entryY=0;entryDx=0;entryDy=0;" edge="1" parent="1" source="ZtoyrRgASsB_ZvQdjm4B-4" target="ZtoyrRgASsB_ZvQdjm4B-5">
          <mxGeometry relative="1" as="geometry" />
        </mxCell>
        <mxCell id="ZtoyrRgASsB_ZvQdjm4B-27" style="edgeStyle=orthogonalEdgeStyle;rounded=0;orthogonalLoop=1;jettySize=auto;html=1;exitX=0;exitY=1;exitDx=0;exitDy=0;entryX=0.5;entryY=0;entryDx=0;entryDy=0;" edge="1" parent="1" source="ZtoyrRgASsB_ZvQdjm4B-4" target="ZtoyrRgASsB_ZvQdjm4B-13">
          <mxGeometry relative="1" as="geometry" />
        </mxCell>
        <mxCell id="ZtoyrRgASsB_ZvQdjm4B-4" value="员工管理模块" style="rounded=0;whiteSpace=wrap;html=1;" vertex="1" parent="1">
          <mxGeometry x="70" y="420" width="110" height="40" as="geometry" />
        </mxCell>
        <mxCell id="ZtoyrRgASsB_ZvQdjm4B-5" value="管理员工账号信息" style="rounded=0;whiteSpace=wrap;html=1;" vertex="1" parent="1">
          <mxGeometry x="80" y="490" width="30" height="240" as="geometry" />
        </mxCell>
        <mxCell id="ZtoyrRgASsB_ZvQdjm4B-6" value="管理权限等级" style="rounded=0;whiteSpace=wrap;html=1;" vertex="1" parent="1">
          <mxGeometry x="130" y="490" width="30" height="240" as="geometry" />
        </mxCell>
        <mxCell id="ZtoyrRgASsB_ZvQdjm4B-7" value="重置员工密码" style="rounded=0;whiteSpace=wrap;html=1;" vertex="1" parent="1">
          <mxGeometry x="180" y="490" width="30" height="240" as="geometry" />
        </mxCell>
        <mxCell id="ZtoyrRgASsB_ZvQdjm4B-22" style="edgeStyle=orthogonalEdgeStyle;rounded=0;orthogonalLoop=1;jettySize=auto;html=1;exitX=0.75;exitY=1;exitDx=0;exitDy=0;entryX=0.5;entryY=0;entryDx=0;entryDy=0;" edge="1" parent="1" source="ZtoyrRgASsB_ZvQdjm4B-8" target="ZtoyrRgASsB_ZvQdjm4B-10">
          <mxGeometry relative="1" as="geometry" />
        </mxCell>
        <mxCell id="ZtoyrRgASsB_ZvQdjm4B-23" style="edgeStyle=orthogonalEdgeStyle;rounded=0;orthogonalLoop=1;jettySize=auto;html=1;exitX=0.25;exitY=1;exitDx=0;exitDy=0;entryX=0.5;entryY=0;entryDx=0;entryDy=0;" edge="1" parent="1" source="ZtoyrRgASsB_ZvQdjm4B-8" target="ZtoyrRgASsB_ZvQdjm4B-9">
          <mxGeometry relative="1" as="geometry" />
        </mxCell>
        <mxCell id="ZtoyrRgASsB_ZvQdjm4B-8" value="权限管理模块" style="rounded=0;whiteSpace=wrap;html=1;" vertex="1" parent="1">
          <mxGeometry x="260" y="420" width="110" height="40" as="geometry" />
        </mxCell>
        <mxCell id="ZtoyrRgASsB_ZvQdjm4B-9" value="管理权限等级&lt;span style=&quot;color: rgba(0, 0, 0, 0); font-family: monospace; font-size: 0px; text-align: start; white-space: nowrap;&quot;&gt;%3CmxGraphModel%3E%3Croot%3E%3CmxCell%20id%3D%220%22%2F%3E%3CmxCell%20id%3D%221%22%20parent%3D%220%22%2F%3E%3CmxCell%20id%3D%222%22%20value%3D%22%E7%AE%A1%E7%90%86%E5%91%98%E5%B7%A5%E8%B4%A6%E5%8F%B7%E4%BF%A1%E6%81%AF%22%20style%3D%22rounded%3D0%3BwhiteSpace%3Dwrap%3Bhtml%3D1%3B%22%20vertex%3D%221%22%20parent%3D%221%22%3E%3CmxGeometry%20x%3D%2280%22%20y%3D%22490%22%20width%3D%2230%22%20height%3D%22240%22%20as%3D%22geometry%22%2F%3E%3C%2FmxCell%3E%3C%2Froot%3E%3C%2FmxGraphModel%3E&lt;/span&gt;" style="rounded=0;whiteSpace=wrap;html=1;" vertex="1" parent="1">
          <mxGeometry x="260" y="490" width="30" height="240" as="geometry" />
        </mxCell>
        <mxCell id="ZtoyrRgASsB_ZvQdjm4B-10" value="设置 每个权限等级的具体权限" style="rounded=0;whiteSpace=wrap;html=1;" vertex="1" parent="1">
          <mxGeometry x="340" y="490" width="30" height="240" as="geometry" />
        </mxCell>
        <mxCell id="ZtoyrRgASsB_ZvQdjm4B-18" style="edgeStyle=orthogonalEdgeStyle;rounded=0;orthogonalLoop=1;jettySize=auto;html=1;exitX=0.25;exitY=1;exitDx=0;exitDy=0;entryX=0.5;entryY=0;entryDx=0;entryDy=0;" edge="1" parent="1" source="ZtoyrRgASsB_ZvQdjm4B-11" target="ZtoyrRgASsB_ZvQdjm4B-12">
          <mxGeometry relative="1" as="geometry" />
        </mxCell>
        <mxCell id="ZtoyrRgASsB_ZvQdjm4B-19" style="edgeStyle=orthogonalEdgeStyle;rounded=0;orthogonalLoop=1;jettySize=auto;html=1;exitX=0.75;exitY=1;exitDx=0;exitDy=0;entryX=0.5;entryY=0;entryDx=0;entryDy=0;" edge="1" parent="1" source="ZtoyrRgASsB_ZvQdjm4B-11" target="ZtoyrRgASsB_ZvQdjm4B-14">
          <mxGeometry relative="1" as="geometry" />
        </mxCell>
        <mxCell id="ZtoyrRgASsB_ZvQdjm4B-11" value="停泊列表模块" style="rounded=0;whiteSpace=wrap;html=1;" vertex="1" parent="1">
          <mxGeometry x="400" y="420" width="110" height="40" as="geometry" />
        </mxCell>
        <mxCell id="ZtoyrRgASsB_ZvQdjm4B-12" value="添加等待停泊船舶" style="rounded=0;whiteSpace=wrap;html=1;" vertex="1" parent="1">
          <mxGeometry x="400" y="490" width="30" height="240" as="geometry" />
        </mxCell>
        <mxCell id="ZtoyrRgASsB_ZvQdjm4B-13" value="添加新员工" style="rounded=0;whiteSpace=wrap;html=1;" vertex="1" parent="1">
          <mxGeometry x="30" y="490" width="30" height="240" as="geometry" />
        </mxCell>
        <mxCell id="ZtoyrRgASsB_ZvQdjm4B-14" value="管理等待停泊船舶信息" style="rounded=0;whiteSpace=wrap;html=1;" vertex="1" parent="1">
          <mxGeometry x="480" y="490" width="30" height="240" as="geometry" />
        </mxCell>
        <mxCell id="ZtoyrRgASsB_ZvQdjm4B-20" style="edgeStyle=orthogonalEdgeStyle;rounded=0;orthogonalLoop=1;jettySize=auto;html=1;exitX=0.25;exitY=1;exitDx=0;exitDy=0;entryX=0.5;entryY=0;entryDx=0;entryDy=0;" edge="1" parent="1" source="ZtoyrRgASsB_ZvQdjm4B-15" target="ZtoyrRgASsB_ZvQdjm4B-16">
          <mxGeometry relative="1" as="geometry" />
        </mxCell>
        <mxCell id="ZtoyrRgASsB_ZvQdjm4B-21" style="edgeStyle=orthogonalEdgeStyle;rounded=0;orthogonalLoop=1;jettySize=auto;html=1;exitX=0.75;exitY=1;exitDx=0;exitDy=0;entryX=0.5;entryY=0;entryDx=0;entryDy=0;" edge="1" parent="1" source="ZtoyrRgASsB_ZvQdjm4B-15" target="ZtoyrRgASsB_ZvQdjm4B-17">
          <mxGeometry relative="1" as="geometry" />
        </mxCell>
        <mxCell id="ZtoyrRgASsB_ZvQdjm4B-15" value="停泊计划模块" style="rounded=0;whiteSpace=wrap;html=1;" vertex="1" parent="1">
          <mxGeometry x="550" y="420" width="110" height="40" as="geometry" />
        </mxCell>
        <mxCell id="ZtoyrRgASsB_ZvQdjm4B-16" value="生成下一周期停泊计划" style="rounded=0;whiteSpace=wrap;html=1;" vertex="1" parent="1">
          <mxGeometry x="550" y="490" width="30" height="240" as="geometry" />
        </mxCell>
        <mxCell id="ZtoyrRgASsB_ZvQdjm4B-17" value="将已完成停泊的船舶移出计划清单" style="rounded=0;whiteSpace=wrap;html=1;" vertex="1" parent="1">
          <mxGeometry x="630" y="490" width="30" height="240" as="geometry" />
        </mxCell>
      </root>
    </mxGraphModel>
  </diagram>
</mxfile>
